<svg width="24" height="24" viewBox="0 0 24 24" fill="none" xmlns="http://www.w3.org/2000/svg">
<path d="M9.03911 21.0723C9.03911 20.9862 9.03911 20.9037 9.03911 20.8212C9.03911 16.9588 9.03911 13.1 9.03911 9.23755C9.03911 9.12996 9.03194 9.04389 9.18974 9.04389C10.3302 9.05106 11.4742 9.04748 12.6146 9.04748C12.6433 9.04748 12.672 9.05465 12.7186 9.06182C12.7186 9.5639 12.7186 10.0588 12.7186 10.5573C12.733 10.5609 12.7437 10.5681 12.7581 10.5716C12.9015 10.3852 13.0378 10.1915 13.1884 10.0086C13.626 9.47066 14.1747 9.07617 14.8202 8.83947C15.1717 8.71037 15.5554 8.63147 15.9248 8.61354C16.434 8.59202 16.954 8.59919 17.4561 8.68526C18.281 8.82513 19.009 9.19093 19.6115 9.78984C20.1817 10.3529 20.5582 11.0307 20.7627 11.7946C20.8703 12.1998 20.9384 12.6158 21.0029 13.0282C21.046 13.3151 21.0675 13.6092 21.0675 13.8961C21.0711 16.2272 21.0711 18.5583 21.0711 20.8894C21.0711 20.9468 21.0675 21.0041 21.0639 21.0794C20.9958 21.0794 20.9384 21.0794 20.881 21.0794C19.78 21.0794 18.6826 21.0759 17.5816 21.083C17.3987 21.083 17.3665 21.0221 17.3665 20.8571C17.37 18.7125 17.3772 16.5643 17.3629 14.4197C17.3593 14.0432 17.3234 13.6523 17.2266 13.29C17.0509 12.6553 16.6492 12.1962 16.0108 11.9631C15.4729 11.7659 14.9278 11.73 14.3755 11.8699C13.7658 12.0241 13.3462 12.4293 13.0306 12.9637C12.7868 13.3761 12.7402 13.8316 12.7366 14.287C12.7222 16.4639 12.7294 18.6372 12.7294 20.8141C12.7294 20.8965 12.7294 20.979 12.7294 21.0687C11.4921 21.0723 10.2764 21.0723 9.03911 21.0723Z" fill="#7A7A7A"/>
<path d="M6.72958 15.1155C6.72958 17.027 6.72599 18.9385 6.73316 20.8499C6.73316 21.0221 6.6973 21.0866 6.50723 21.083C5.41341 21.0723 4.3196 21.0723 3.22578 21.083C3.04647 21.083 3.00702 21.0221 3.00702 20.8571C3.01061 17.0162 3.01061 13.1717 3.00702 9.33081C3.00702 9.1766 3.05005 9.1228 3.20785 9.1228C4.31242 9.12998 5.417 9.12998 6.52516 9.1228C6.6973 9.1228 6.72958 9.18736 6.72958 9.34157C6.72958 11.2674 6.72958 13.1932 6.72958 15.1155Z" fill="#7A7A7A"/>
<path d="M4.82877 3.0011C6.00865 2.97241 6.71515 3.82953 6.71874 4.88031C6.72232 5.9562 5.9692 6.75953 4.78573 6.75594C3.68474 6.75594 2.90652 5.96696 2.91011 4.85162C2.91369 3.80802 3.6704 2.96524 4.82877 3.0011Z" fill="#7A7A7A"/>
</svg>
