<svg width="95" height="16" viewBox="0 0 95 16" fill="none" xmlns="http://www.w3.org/2000/svg">
<mask id="path-1-outside-1_59_9" maskUnits="userSpaceOnUse" x="-0.800781" y="-0.339844" width="95" height="16" fill="black">
<rect fill="white" x="-0.800781" y="-0.339844" width="95" height="16"/>
<path d="M0.499219 10.6602V0.740156H2.75922L2.95922 2.42016C3.26589 1.83349 3.70589 1.36682 4.27922 1.02016C4.86589 0.673489 5.55255 0.500156 6.33922 0.500156C7.56589 0.500156 8.51922 0.886823 9.19922 1.66016C9.87922 2.43349 10.2192 3.56682 10.2192 5.06016V10.6602H7.65922V5.30016C7.65922 4.44682 7.48589 3.79349 7.13922 3.34016C6.79255 2.88682 6.25255 2.66016 5.51922 2.66016C4.79922 2.66016 4.20589 2.91349 3.73922 3.42016C3.28589 3.92682 3.05922 4.63349 3.05922 5.54016V10.6602H0.499219ZM16.0872 10.9002C15.2339 10.9002 14.5339 10.7668 13.9872 10.5002C13.4405 10.2202 13.0339 9.85349 12.7672 9.40016C12.5005 8.94682 12.3672 8.44682 12.3672 7.90016C12.3672 6.98016 12.7272 6.23349 13.4472 5.66016C14.1672 5.08682 15.2472 4.80016 16.6872 4.80016H19.2072V4.56016C19.2072 3.88016 19.0139 3.38016 18.6272 3.06016C18.2405 2.74016 17.7605 2.58016 17.1872 2.58016C16.6672 2.58016 16.2139 2.70682 15.8272 2.96016C15.4405 3.20016 15.2005 3.56016 15.1072 4.04016H12.6072C12.6739 3.32016 12.9139 2.69349 13.3272 2.16016C13.7539 1.62682 14.3005 1.22016 14.9672 0.940156C15.6339 0.646822 16.3805 0.500156 17.2072 0.500156C18.6205 0.500156 19.7339 0.853489 20.5472 1.56016C21.3605 2.26682 21.7672 3.26682 21.7672 4.56016V10.6602H19.5872L19.3472 9.06016C19.0539 9.59349 18.6405 10.0335 18.1072 10.3802C17.5872 10.7268 16.9139 10.9002 16.0872 10.9002ZM16.6672 8.90016C17.4005 8.90016 17.9672 8.66016 18.3672 8.18016C18.7805 7.70016 19.0405 7.10682 19.1472 6.40016H16.9672C16.2872 6.40016 15.8005 6.52682 15.5072 6.78016C15.2139 7.02016 15.0672 7.32016 15.0672 7.68016C15.0672 8.06682 15.2139 8.36682 15.5072 8.58016C15.8005 8.79349 16.1872 8.90016 16.6672 8.90016ZM24.2102 10.6602V0.740156H26.4702L26.6702 2.42016C26.9768 1.83349 27.4168 1.36682 27.9902 1.02016C28.5768 0.673489 29.2635 0.500156 30.0502 0.500156C31.2768 0.500156 32.2302 0.886823 32.9102 1.66016C33.5902 2.43349 33.9302 3.56682 33.9302 5.06016V10.6602H31.3702V5.30016C31.3702 4.44682 31.1968 3.79349 30.8502 3.34016C30.5035 2.88682 29.9635 2.66016 29.2302 2.66016C28.5102 2.66016 27.9168 2.91349 27.4502 3.42016C26.9968 3.92682 26.7702 4.63349 26.7702 5.54016V10.6602H24.2102ZM39.7981 10.9002C38.9448 10.9002 38.2448 10.7668 37.6981 10.5002C37.1515 10.2202 36.7448 9.85349 36.4781 9.40016C36.2115 8.94682 36.0781 8.44682 36.0781 7.90016C36.0781 6.98016 36.4381 6.23349 37.1581 5.66016C37.8781 5.08682 38.9581 4.80016 40.3981 4.80016H42.9181V4.56016C42.9181 3.88016 42.7248 3.38016 42.3381 3.06016C41.9515 2.74016 41.4715 2.58016 40.8981 2.58016C40.3781 2.58016 39.9248 2.70682 39.5381 2.96016C39.1515 3.20016 38.9115 3.56016 38.8181 4.04016H36.3181C36.3848 3.32016 36.6248 2.69349 37.0381 2.16016C37.4648 1.62682 38.0115 1.22016 38.6781 0.940156C39.3448 0.646822 40.0915 0.500156 40.9181 0.500156C42.3315 0.500156 43.4448 0.853489 44.2581 1.56016C45.0715 2.26682 45.4781 3.26682 45.4781 4.56016V10.6602H43.2981L43.0581 9.06016C42.7648 9.59349 42.3515 10.0335 41.8181 10.3802C41.2981 10.7268 40.6248 10.9002 39.7981 10.9002ZM40.3781 8.90016C41.1115 8.90016 41.6781 8.66016 42.0781 8.18016C42.4915 7.70016 42.7515 7.10682 42.8581 6.40016H40.6781C39.9981 6.40016 39.5115 6.52682 39.2181 6.78016C38.9248 7.02016 38.7781 7.32016 38.7781 7.68016C38.7781 8.06682 38.9248 8.36682 39.2181 8.58016C39.5115 8.79349 39.8981 8.90016 40.3781 8.90016ZM53.9267 15.0602L56.2267 10.0002H55.6267L51.7667 0.740156H54.5467L57.3267 7.72016L60.2267 0.740156H62.9467L56.6467 15.0602H53.9267ZM67.2591 10.9002C66.4057 10.9002 65.7057 10.7668 65.1591 10.5002C64.6124 10.2202 64.2057 9.85349 63.9391 9.40016C63.6724 8.94682 63.5391 8.44682 63.5391 7.90016C63.5391 6.98016 63.8991 6.23349 64.6191 5.66016C65.3391 5.08682 66.4191 4.80016 67.8591 4.80016H70.3791V4.56016C70.3791 3.88016 70.1857 3.38016 69.7991 3.06016C69.4124 2.74016 68.9324 2.58016 68.3591 2.58016C67.8391 2.58016 67.3857 2.70682 66.9991 2.96016C66.6124 3.20016 66.3724 3.56016 66.2791 4.04016H63.7791C63.8457 3.32016 64.0857 2.69349 64.4991 2.16016C64.9257 1.62682 65.4724 1.22016 66.1391 0.940156C66.8057 0.646822 67.5524 0.500156 68.3791 0.500156C69.7924 0.500156 70.9057 0.853489 71.7191 1.56016C72.5324 2.26682 72.9391 3.26682 72.9391 4.56016V10.6602H70.7591L70.5191 9.06016C70.2257 9.59349 69.8124 10.0335 69.2791 10.3802C68.7591 10.7268 68.0857 10.9002 67.2591 10.9002ZM67.8391 8.90016C68.5724 8.90016 69.1391 8.66016 69.5391 8.18016C69.9524 7.70016 70.2124 7.10682 70.3191 6.40016H68.1391C67.4591 6.40016 66.9724 6.52682 66.6791 6.78016C66.3857 7.02016 66.2391 7.32016 66.2391 7.68016C66.2391 8.06682 66.3857 8.36682 66.6791 8.58016C66.9724 8.79349 67.3591 8.90016 67.8391 8.90016ZM77.2244 10.6602L74.3244 0.740156H76.8644L78.5844 7.88016L80.5844 0.740156H83.4244L85.4244 7.88016L87.1644 0.740156H89.7044L86.7844 10.6602H84.1244L82.0044 3.24016L79.8844 10.6602H77.2244ZM92.0875 10.8002C91.6208 10.8002 91.2342 10.6535 90.9275 10.3602C90.6342 10.0668 90.4875 9.71349 90.4875 9.30016C90.4875 8.87349 90.6342 8.51349 90.9275 8.22016C91.2342 7.92682 91.6208 7.78016 92.0875 7.78016C92.5542 7.78016 92.9342 7.92682 93.2275 8.22016C93.5342 8.51349 93.6875 8.87349 93.6875 9.30016C93.6875 9.71349 93.5342 10.0668 93.2275 10.3602C92.9342 10.6535 92.5542 10.8002 92.0875 10.8002Z"/>
</mask>
<path d="M0.499219 10.6602H-0.000781178V11.1602H0.499219V10.6602ZM0.499219 0.740156V0.240156H-0.000781178V0.740156H0.499219ZM2.75922 0.740156L3.25571 0.681049L3.20323 0.240156H2.75922V0.740156ZM2.95922 2.42016L2.46272 2.47926L2.65375 4.08386L3.40233 2.65178L2.95922 2.42016ZM4.27922 1.02016L4.02484 0.58967L4.02051 0.59229L4.27922 1.02016ZM9.19922 1.66016L8.82373 1.99032V1.99032L9.19922 1.66016ZM10.2192 10.6602V11.1602H10.7192V10.6602H10.2192ZM7.65922 10.6602H7.15922V11.1602H7.65922V10.6602ZM7.13922 3.34016L7.5364 3.03643V3.03643L7.13922 3.34016ZM3.73922 3.42016L3.37141 3.08138L3.3666 3.08676L3.73922 3.42016ZM3.05922 10.6602V11.1602H3.55922V10.6602H3.05922ZM0.499219 10.6602H0.999219V0.740156H0.499219H-0.000781178V10.6602H0.499219ZM0.499219 0.740156V1.24016H2.75922V0.740156V0.240156H0.499219V0.740156ZM2.75922 0.740156L2.26272 0.799262L2.46272 2.47926L2.95922 2.42016L3.45571 2.36105L3.25571 0.681049L2.75922 0.740156ZM2.95922 2.42016L3.40233 2.65178C3.6661 2.14719 4.04185 1.74797 4.53793 1.44802L4.27922 1.02016L4.02051 0.59229C3.36992 0.985671 2.86568 1.51979 2.51611 2.18853L2.95922 2.42016ZM4.27922 1.02016L4.53358 1.45062C5.03197 1.15612 5.62801 1.00016 6.33922 1.00016V0.500156V0.000156403C5.47709 0.000156403 4.6998 0.190862 4.02485 0.589692L4.27922 1.02016ZM6.33922 0.500156V1.00016C7.45224 1.00016 8.25688 1.34567 8.82373 1.99032L9.19922 1.66016L9.5747 1.32999C8.78155 0.427974 7.67953 0.000156403 6.33922 0.000156403V0.500156ZM9.19922 1.66016L8.82373 1.99032C9.39395 2.6388 9.71922 3.63459 9.71922 5.06016H10.2192H10.7192C10.7192 3.49906 10.3645 2.22818 9.5747 1.32999L9.19922 1.66016ZM10.2192 5.06016H9.71922V10.6602H10.2192H10.7192V5.06016H10.2192ZM10.2192 10.6602V10.1602H7.65922V10.6602V11.1602H10.2192V10.6602ZM7.65922 10.6602H8.15922V5.30016H7.65922H7.15922V10.6602H7.65922ZM7.65922 5.30016H8.15922C8.15922 4.3889 7.97557 3.61074 7.5364 3.03643L7.13922 3.34016L6.74204 3.64388C6.9962 3.97624 7.15922 4.50474 7.15922 5.30016H7.65922ZM7.13922 3.34016L7.5364 3.03643C7.06907 2.42531 6.35969 2.16016 5.51922 2.16016V2.66016V3.16016C6.14541 3.16016 6.51603 3.34833 6.74204 3.64388L7.13922 3.34016ZM5.51922 2.66016V2.16016C4.66662 2.16016 3.93751 2.46683 3.37145 3.08142L3.73922 3.42016L4.10699 3.75889C4.47426 3.36015 4.93182 3.16016 5.51922 3.16016V2.66016ZM3.73922 3.42016L3.3666 3.08676C2.80714 3.71204 2.55922 4.55217 2.55922 5.54016H3.05922H3.55922C3.55922 4.71481 3.76463 4.14161 4.11184 3.75355L3.73922 3.42016ZM3.05922 5.54016H2.55922V10.6602H3.05922H3.55922V5.54016H3.05922ZM3.05922 10.6602V10.1602H0.499219V10.6602V11.1602H3.05922V10.6602ZM13.9872 10.5002L13.7592 10.9453L13.768 10.9495L13.9872 10.5002ZM12.7672 9.40016L12.3362 9.65367V9.65367L12.7672 9.40016ZM13.4472 5.66016L13.7587 6.0513V6.0513L13.4472 5.66016ZM19.2072 4.80016V5.30016H19.7072V4.80016H19.2072ZM18.6272 3.06016L18.946 2.67496V2.67496L18.6272 3.06016ZM15.8272 2.96016L16.0909 3.3851L16.1012 3.37839L15.8272 2.96016ZM15.1072 4.04016V4.54016H15.5193L15.598 4.13559L15.1072 4.04016ZM12.6072 4.04016L12.1093 3.99406L12.0588 4.54016H12.6072V4.04016ZM13.3272 2.16016L12.9367 1.84777L12.932 1.85387L13.3272 2.16016ZM14.9672 0.940156L15.1608 1.40121L15.1686 1.39781L14.9672 0.940156ZM20.5472 1.56016L20.2193 1.93759V1.93759L20.5472 1.56016ZM21.7672 10.6602V11.1602H22.2672V10.6602H21.7672ZM19.5872 10.6602L19.0927 10.7343L19.1566 11.1602H19.5872V10.6602ZM19.3472 9.06016L19.8417 8.98599L19.6222 7.52269L18.9091 8.8192L19.3472 9.06016ZM18.1072 10.3802L17.8347 9.96091L17.8298 9.96413L18.1072 10.3802ZM18.3672 8.18016L17.9883 7.85385L17.9831 7.86006L18.3672 8.18016ZM19.1472 6.40016L19.6416 6.47478L19.7283 5.90016H19.1472V6.40016ZM15.5072 6.78016L15.8239 7.16727L15.834 7.15857L15.5072 6.78016ZM15.5072 8.58016L15.8013 8.17579V8.17579L15.5072 8.58016ZM16.0872 10.9002V10.4002C15.2811 10.4002 14.663 10.2735 14.2064 10.0508L13.9872 10.5002L13.768 10.9495C14.4047 11.2601 15.1866 11.4002 16.0872 11.4002V10.9002ZM13.9872 10.5002L14.2151 10.0551C13.7385 9.81101 13.4091 9.50523 13.1982 9.14665L12.7672 9.40016L12.3362 9.65367C12.6586 10.2018 13.1425 10.6293 13.7592 10.9452L13.9872 10.5002ZM12.7672 9.40016L13.1982 9.14665C12.9785 8.77325 12.8672 8.36135 12.8672 7.90016H12.3672H11.8672C11.8672 8.5323 12.0225 9.12039 12.3362 9.65367L12.7672 9.40016ZM12.3672 7.90016H12.8672C12.8672 7.13252 13.1577 6.52981 13.7587 6.0513L13.4472 5.66016L13.1357 5.26902C12.2966 5.93717 11.8672 6.82779 11.8672 7.90016H12.3672ZM13.4472 5.66016L13.7587 6.0513C14.3524 5.57848 15.3002 5.30016 16.6872 5.30016V4.80016V4.30016C15.1942 4.30016 13.982 4.59516 13.1357 5.26902L13.4472 5.66016ZM16.6872 4.80016V5.30016H19.2072V4.80016V4.30016H16.6872V4.80016ZM19.2072 4.80016H19.7072V4.56016H19.2072H18.7072V4.80016H19.2072ZM19.2072 4.56016H19.7072C19.7072 3.78719 19.4845 3.12066 18.946 2.67496L18.6272 3.06016L18.3084 3.44535C18.5432 3.63965 18.7072 3.97312 18.7072 4.56016H19.2072ZM18.6272 3.06016L18.946 2.67496C18.457 2.27031 17.8594 2.08016 17.1872 2.08016V2.58016V3.08016C17.6616 3.08016 18.024 3.21 18.3084 3.44535L18.6272 3.06016ZM17.1872 2.58016V2.08016C16.5824 2.08016 16.0312 2.22875 15.5532 2.54193L15.8272 2.96016L16.1012 3.37839C16.3965 3.18489 16.752 3.08016 17.1872 3.08016V2.58016ZM15.8272 2.96016L15.5635 2.53534C15.0491 2.85464 14.7341 3.33949 14.6164 3.94472L15.1072 4.04016L15.598 4.13559C15.667 3.78082 15.832 3.54567 16.0909 3.38498L15.8272 2.96016ZM15.1072 4.04016V3.54016H12.6072V4.04016V4.54016H15.1072V4.04016ZM12.6072 4.04016L13.1051 4.08625C13.1636 3.4539 13.3715 2.91915 13.7224 2.46644L13.3272 2.16016L12.932 1.85387C12.4562 2.46783 12.1841 3.18641 12.1093 3.99406L12.6072 4.04016ZM13.3272 2.16016L13.7176 2.4725C14.0891 2.00822 14.5665 1.65077 15.1608 1.40115L14.9672 0.940156L14.7736 0.479164C14.0346 0.78954 13.4187 1.24543 12.9368 1.84781L13.3272 2.16016ZM14.9672 0.940156L15.1686 1.39781C15.7637 1.13593 16.4405 1.00016 17.2072 1.00016V0.500156V0.000156403C16.3205 0.000156403 15.504 0.15771 14.7658 0.482498L14.9672 0.940156ZM17.2072 0.500156V1.00016C18.5382 1.00016 19.5221 1.33188 20.2193 1.93759L20.5472 1.56016L20.8751 1.18272C19.9456 0.375101 18.7028 0.000156403 17.2072 0.000156403V0.500156ZM20.5472 1.56016L20.2193 1.93759C20.9014 2.53027 21.2672 3.37984 21.2672 4.56016H21.7672H22.2672C22.2672 3.1538 21.8197 2.00338 20.8751 1.18272L20.5472 1.56016ZM21.7672 4.56016H21.2672V10.6602H21.7672H22.2672V4.56016H21.7672ZM21.7672 10.6602V10.1602H19.5872V10.6602V11.1602H21.7672V10.6602ZM19.5872 10.6602L20.0817 10.586L19.8417 8.98599L19.3472 9.06016L18.8527 9.13433L19.0927 10.7343L19.5872 10.6602ZM19.3472 9.06016L18.9091 8.8192C18.6572 9.27709 18.3022 9.65705 17.8347 9.96093L18.1072 10.3802L18.3797 10.7994C18.9788 10.4099 19.4505 9.90989 19.7853 9.30112L19.3472 9.06016ZM18.1072 10.3802L17.8298 9.96413C17.4146 10.2409 16.8465 10.4002 16.0872 10.4002V10.9002V11.4002C16.9813 11.4002 17.7597 11.2127 18.3845 10.7962L18.1072 10.3802ZM16.6672 8.90016V9.40016C17.5203 9.40016 18.2394 9.11455 18.7513 8.50025L18.3672 8.18016L17.9831 7.86006C17.695 8.20576 17.2808 8.40016 16.6672 8.40016V8.90016ZM18.3672 8.18016L18.7461 8.50642C19.2285 7.94623 19.5227 7.26226 19.6416 6.47478L19.1472 6.40016L18.6528 6.32553C18.5583 6.95139 18.3326 7.45408 17.9883 7.8539L18.3672 8.18016ZM19.1472 6.40016V5.90016H16.9672V6.40016V6.90016H19.1472V6.40016ZM16.9672 6.40016V5.90016C16.2492 5.90016 15.6116 6.02928 15.1804 6.40174L15.5072 6.78016L15.834 7.15857C15.9894 7.02436 16.3252 6.90016 16.9672 6.90016V6.40016ZM15.5072 6.78016L15.1906 6.39318C14.7882 6.72238 14.5672 7.16132 14.5672 7.68016H15.0672H15.5672C15.5672 7.479 15.6395 7.31794 15.8238 7.16714L15.5072 6.78016ZM15.0672 7.68016H14.5672C14.5672 8.21442 14.7807 8.67005 15.2131 8.98452L15.5072 8.58016L15.8013 8.17579C15.647 8.06359 15.5672 7.91923 15.5672 7.68016H15.0672ZM15.5072 8.58016L15.2131 8.98452C15.6157 9.27736 16.1154 9.40016 16.6672 9.40016V8.90016V8.40016C16.259 8.40016 15.9853 8.30962 15.8013 8.17579L15.5072 8.58016ZM24.2102 10.6602H23.7102V11.1602H24.2102V10.6602ZM24.2102 0.740156V0.240156H23.7102V0.740156H24.2102ZM26.4702 0.740156L26.9667 0.681049L26.9142 0.240156H26.4702V0.740156ZM26.6702 2.42016L26.1737 2.47926L26.3647 4.08386L27.1133 2.65178L26.6702 2.42016ZM27.9902 1.02016L27.7358 0.58967L27.7314 0.59229L27.9902 1.02016ZM32.9102 1.66016L32.5347 1.99032V1.99032L32.9102 1.66016ZM33.9302 10.6602V11.1602H34.4302V10.6602H33.9302ZM31.3702 10.6602H30.8702V11.1602H31.3702V10.6602ZM30.8502 3.34016L31.2473 3.03643V3.03643L30.8502 3.34016ZM27.4502 3.42016L27.0823 3.08138L27.0775 3.08676L27.4502 3.42016ZM26.7702 10.6602V11.1602H27.2702V10.6602H26.7702ZM24.2102 10.6602H24.7102V0.740156H24.2102H23.7102V10.6602H24.2102ZM24.2102 0.740156V1.24016H26.4702V0.740156V0.240156H24.2102V0.740156ZM26.4702 0.740156L25.9737 0.799262L26.1737 2.47926L26.6702 2.42016L27.1667 2.36105L26.9667 0.681049L26.4702 0.740156ZM26.6702 2.42016L27.1133 2.65178C27.377 2.14719 27.7528 1.74797 28.2489 1.44802L27.9902 1.02016L27.7314 0.59229C27.0809 0.985671 26.5766 1.51979 26.227 2.18853L26.6702 2.42016ZM27.9902 1.02016L28.2445 1.45062C28.7429 1.15612 29.3389 1.00016 30.0502 1.00016V0.500156V0.000156403C29.188 0.000156403 28.4107 0.190862 27.7358 0.589692L27.9902 1.02016ZM30.0502 0.500156V1.00016C31.1632 1.00016 31.9678 1.34567 32.5347 1.99032L32.9102 1.66016L33.2856 1.32999C32.4925 0.427974 31.3905 0.000156403 30.0502 0.000156403V0.500156ZM32.9102 1.66016L32.5347 1.99032C33.1049 2.6388 33.4302 3.63459 33.4302 5.06016H33.9302H34.4302C34.4302 3.49906 34.0754 2.22818 33.2856 1.32999L32.9102 1.66016ZM33.9302 5.06016H33.4302V10.6602H33.9302H34.4302V5.06016H33.9302ZM33.9302 10.6602V10.1602H31.3702V10.6602V11.1602H33.9302V10.6602ZM31.3702 10.6602H31.8702V5.30016H31.3702H30.8702V10.6602H31.3702ZM31.3702 5.30016H31.8702C31.8702 4.3889 31.6865 3.61074 31.2473 3.03643L30.8502 3.34016L30.453 3.64388C30.7071 3.97624 30.8702 4.50474 30.8702 5.30016H31.3702ZM30.8502 3.34016L31.2473 3.03643C30.78 2.42531 30.0706 2.16016 29.2302 2.16016V2.66016V3.16016C29.8564 3.16016 30.227 3.34833 30.453 3.64388L30.8502 3.34016ZM29.2302 2.66016V2.16016C28.3776 2.16016 27.6485 2.46683 27.0824 3.08142L27.4502 3.42016L27.8179 3.75889C28.1852 3.36015 28.6428 3.16016 29.2302 3.16016V2.66016ZM27.4502 3.42016L27.0775 3.08676C26.5181 3.71204 26.2702 4.55217 26.2702 5.54016H26.7702H27.2702C27.2702 4.71481 27.4756 4.14161 27.8228 3.75355L27.4502 3.42016ZM26.7702 5.54016H26.2702V10.6602H26.7702H27.2702V5.54016H26.7702ZM26.7702 10.6602V10.1602H24.2102V10.6602V11.1602H26.7702V10.6602ZM37.6981 10.5002L37.4701 10.9453L37.4789 10.9495L37.6981 10.5002ZM36.4781 9.40016L36.0472 9.65367V9.65367L36.4781 9.40016ZM37.1581 5.66016L37.4696 6.0513V6.0513L37.1581 5.66016ZM42.9181 4.80016V5.30016H43.4181V4.80016H42.9181ZM42.3381 3.06016L42.6569 2.67496V2.67496L42.3381 3.06016ZM39.5381 2.96016L39.8019 3.3851L39.8121 3.37839L39.5381 2.96016ZM38.8181 4.04016V4.54016H39.2303L39.3089 4.13559L38.8181 4.04016ZM36.3181 4.04016L35.8203 3.99406L35.7697 4.54016H36.3181V4.04016ZM37.0381 2.16016L36.6476 1.84777L36.6429 1.85387L37.0381 2.16016ZM38.6781 0.940156L38.8718 1.40121L38.8795 1.39781L38.6781 0.940156ZM44.2581 1.56016L43.9302 1.93759V1.93759L44.2581 1.56016ZM45.4781 10.6602V11.1602H45.9781V10.6602H45.4781ZM43.2981 10.6602L42.8037 10.7343L42.8675 11.1602H43.2981V10.6602ZM43.0581 9.06016L43.5526 8.98599L43.3331 7.52269L42.62 8.8192L43.0581 9.06016ZM41.8181 10.3802L41.5456 9.96091L41.5408 9.96413L41.8181 10.3802ZM42.0781 8.18016L41.6992 7.85385L41.694 7.86006L42.0781 8.18016ZM42.8581 6.40016L43.3525 6.47478L43.4393 5.90016H42.8581V6.40016ZM39.2181 6.78016L39.5349 7.16727L39.5449 7.15857L39.2181 6.78016ZM39.2181 8.58016L39.5122 8.17579V8.17579L39.2181 8.58016ZM39.7981 10.9002V10.4002C38.9921 10.4002 38.3739 10.2735 37.9173 10.0508L37.6981 10.5002L37.4789 10.9495C38.1157 11.2601 38.8975 11.4002 39.7981 11.4002V10.9002ZM37.6981 10.5002L37.9261 10.0551C37.4494 9.81101 37.12 9.50523 36.9091 9.14665L36.4781 9.40016L36.0472 9.65367C36.3696 10.2018 36.8535 10.6293 37.4702 10.9452L37.6981 10.5002ZM36.4781 9.40016L36.9091 9.14665C36.6894 8.77325 36.5781 8.36135 36.5781 7.90016H36.0781H35.5781C35.5781 8.5323 35.7335 9.12039 36.0472 9.65367L36.4781 9.40016ZM36.0781 7.90016H36.5781C36.5781 7.13252 36.8687 6.52981 37.4696 6.0513L37.1581 5.66016L36.8467 5.26902C36.0076 5.93717 35.5781 6.82779 35.5781 7.90016H36.0781ZM37.1581 5.66016L37.4696 6.0513C38.0634 5.57848 39.0111 5.30016 40.3981 5.30016V4.80016V4.30016C38.9051 4.30016 37.6929 4.59516 36.8467 5.26902L37.1581 5.66016ZM40.3981 4.80016V5.30016H42.9181V4.80016V4.30016H40.3981V4.80016ZM42.9181 4.80016H43.4181V4.56016H42.9181H42.4181V4.80016H42.9181ZM42.9181 4.56016H43.4181C43.4181 3.78719 43.1955 3.12066 42.6569 2.67496L42.3381 3.06016L42.0193 3.44535C42.2541 3.63965 42.4181 3.97312 42.4181 4.56016H42.9181ZM42.3381 3.06016L42.6569 2.67496C42.168 2.27031 41.5703 2.08016 40.8981 2.08016V2.58016V3.08016C41.3726 3.08016 41.735 3.21 42.0193 3.44535L42.3381 3.06016ZM40.8981 2.58016V2.08016C40.2933 2.08016 39.7421 2.22875 39.2641 2.54193L39.5381 2.96016L39.8121 3.37839C40.1075 3.18489 40.4629 3.08016 40.8981 3.08016V2.58016ZM39.5381 2.96016L39.2744 2.53534C38.76 2.85464 38.445 3.33949 38.3273 3.94472L38.8181 4.04016L39.3089 4.13559C39.3779 3.78082 39.5429 3.54567 39.8018 3.38498L39.5381 2.96016ZM38.8181 4.04016V3.54016H36.3181V4.04016V4.54016H38.8181V4.04016ZM36.3181 4.04016L36.816 4.08625C36.8745 3.4539 37.0825 2.91915 37.4333 2.46644L37.0381 2.16016L36.6429 1.85387C36.1671 2.46783 35.895 3.18641 35.8203 3.99406L36.3181 4.04016ZM37.0381 2.16016L37.4286 2.4725C37.8 2.00822 38.2774 1.65077 38.8717 1.40115L38.6781 0.940156L38.4845 0.479164C37.7455 0.78954 37.1296 1.24543 36.6477 1.84781L37.0381 2.16016ZM38.6781 0.940156L38.8795 1.39781C39.4747 1.13593 40.1514 1.00016 40.9181 1.00016V0.500156V0.000156403C40.0315 0.000156403 39.2149 0.15771 38.4768 0.482498L38.6781 0.940156ZM40.9181 0.500156V1.00016C42.2492 1.00016 43.233 1.33188 43.9302 1.93759L44.2581 1.56016L44.5861 1.18272C43.6565 0.375101 42.4137 0.000156403 40.9181 0.000156403V0.500156ZM44.2581 1.56016L43.9302 1.93759C44.6123 2.53027 44.9781 3.37984 44.9781 4.56016H45.4781H45.9781C45.9781 3.1538 45.5306 2.00338 44.5861 1.18272L44.2581 1.56016ZM45.4781 4.56016H44.9781V10.6602H45.4781H45.9781V4.56016H45.4781ZM45.4781 10.6602V10.1602H43.2981V10.6602V11.1602H45.4781V10.6602ZM43.2981 10.6602L43.7926 10.586L43.5526 8.98599L43.0581 9.06016L42.5637 9.13433L42.8037 10.7343L43.2981 10.6602ZM43.0581 9.06016L42.62 8.8192C42.3682 9.27709 42.0131 9.65705 41.5456 9.96093L41.8181 10.3802L42.0906 10.7994C42.6898 10.4099 43.1614 9.90989 43.4962 9.30112L43.0581 9.06016ZM41.8181 10.3802L41.5408 9.96413C41.1256 10.2409 40.5574 10.4002 39.7981 10.4002V10.9002V11.4002C40.6922 11.4002 41.4707 11.2127 42.0955 10.7962L41.8181 10.3802ZM40.3781 8.90016V9.40016C41.2312 9.40016 41.9503 9.11455 42.4622 8.50025L42.0781 8.18016L41.694 7.86006C41.4059 8.20576 40.9917 8.40016 40.3781 8.40016V8.90016ZM42.0781 8.18016L42.457 8.50642C42.9394 7.94623 43.2337 7.26226 43.3525 6.47478L42.8581 6.40016L42.3637 6.32553C42.2693 6.95139 42.0435 7.45408 41.6992 7.8539L42.0781 8.18016ZM42.8581 6.40016V5.90016H40.6781V6.40016V6.90016H42.8581V6.40016ZM40.6781 6.40016V5.90016C39.9601 5.90016 39.3226 6.02928 38.8913 6.40174L39.2181 6.78016L39.5449 7.15857C39.7003 7.02436 40.0362 6.90016 40.6781 6.90016V6.40016ZM39.2181 6.78016L38.9015 6.39318C38.4992 6.72238 38.2781 7.16132 38.2781 7.68016H38.7781H39.2781C39.2781 7.479 39.3504 7.31794 39.5347 7.16714L39.2181 6.78016ZM38.7781 7.68016H38.2781C38.2781 8.21442 38.4916 8.67005 38.924 8.98452L39.2181 8.58016L39.5122 8.17579C39.3579 8.06359 39.2781 7.91923 39.2781 7.68016H38.7781ZM39.2181 8.58016L38.924 8.98452C39.3267 9.27736 39.8264 9.40016 40.3781 9.40016V8.90016V8.40016C39.9699 8.40016 39.6962 8.30962 39.5122 8.17579L39.2181 8.58016ZM53.9267 15.0602L53.4715 14.8533L53.1502 15.5602H53.9267V15.0602ZM56.2267 10.0002L56.6819 10.2071L57.0032 9.50016H56.2267V10.0002ZM55.6267 10.0002L55.1652 10.1925L55.2934 10.5002H55.6267V10.0002ZM51.7667 0.740156V0.240156H51.0166L51.3052 0.932534L51.7667 0.740156ZM54.5467 0.740156L55.0112 0.555149L54.8858 0.240156H54.5467V0.740156ZM57.3267 7.72016L56.8622 7.90516L57.3169 9.04689L57.7885 7.91199L57.3267 7.72016ZM60.2267 0.740156V0.240156H59.893L59.765 0.548318L60.2267 0.740156ZM62.9467 0.740156L63.4044 0.941504L63.7129 0.240156H62.9467V0.740156ZM56.6467 15.0602V15.5602H56.973L57.1044 15.2615L56.6467 15.0602ZM53.9267 15.0602L54.3819 15.2671L56.6819 10.2071L56.2267 10.0002L55.7715 9.79325L53.4715 14.8533L53.9267 15.0602ZM56.2267 10.0002V9.50016H55.6267V10.0002V10.5002H56.2267V10.0002ZM55.6267 10.0002L56.0882 9.80778L52.2282 0.547777L51.7667 0.740156L51.3052 0.932534L55.1652 10.1925L55.6267 10.0002ZM51.7667 0.740156V1.24016H54.5467V0.740156V0.240156H51.7667V0.740156ZM54.5467 0.740156L54.0822 0.925162L56.8622 7.90516L57.3267 7.72016L57.7912 7.53515L55.0112 0.555149L54.5467 0.740156ZM57.3267 7.72016L57.7885 7.91199L60.6885 0.931993L60.2267 0.740156L59.765 0.548318L56.865 7.52832L57.3267 7.72016ZM60.2267 0.740156V1.24016H62.9467V0.740156V0.240156H60.2267V0.740156ZM62.9467 0.740156L62.4891 0.538808L56.1891 14.8588L56.6467 15.0602L57.1044 15.2615L63.4044 0.941504L62.9467 0.740156ZM56.6467 15.0602V14.5602H53.9267V15.0602V15.5602H56.6467V15.0602ZM65.1591 10.5002L64.9311 10.9453L64.9398 10.9495L65.1591 10.5002ZM63.9391 9.40016L63.5081 9.65367V9.65367L63.9391 9.40016ZM64.6191 5.66016L64.9305 6.0513V6.0513L64.6191 5.66016ZM70.3791 4.80016V5.30016H70.8791V4.80016H70.3791ZM69.7991 3.06016L70.1178 2.67496V2.67496L69.7991 3.06016ZM66.9991 2.96016L67.2628 3.3851L67.2731 3.37839L66.9991 2.96016ZM66.2791 4.04016V4.54016H66.6912L66.7699 4.13559L66.2791 4.04016ZM63.7791 4.04016L63.2812 3.99406L63.2306 4.54016H63.7791V4.04016ZM64.4991 2.16016L64.1086 1.84777L64.1039 1.85387L64.4991 2.16016ZM66.1391 0.940156L66.3327 1.40121L66.3404 1.39781L66.1391 0.940156ZM71.7191 1.56016L71.3911 1.93759V1.93759L71.7191 1.56016ZM72.9391 10.6602V11.1602H73.4391V10.6602H72.9391ZM70.7591 10.6602L70.2646 10.7343L70.3285 11.1602H70.7591V10.6602ZM70.5191 9.06016L71.0135 8.98599L70.794 7.52269L70.081 8.8192L70.5191 9.06016ZM69.2791 10.3802L69.0066 9.96091L69.0017 9.96413L69.2791 10.3802ZM69.5391 8.18016L69.1601 7.85385L69.155 7.86006L69.5391 8.18016ZM70.3191 6.40016L70.8135 6.47478L70.9002 5.90016H70.3191V6.40016ZM66.6791 6.78016L66.9958 7.16727L67.0059 7.15857L66.6791 6.78016ZM66.6791 8.58016L66.9732 8.17579V8.17579L66.6791 8.58016ZM67.2591 10.9002V10.4002C66.453 10.4002 65.8349 10.2735 65.3783 10.0508L65.1591 10.5002L64.9398 10.9495C65.5766 11.2601 66.3585 11.4002 67.2591 11.4002V10.9002ZM65.1591 10.5002L65.387 10.0551C64.9104 9.81101 64.581 9.50523 64.37 9.14665L63.9391 9.40016L63.5081 9.65367C63.8305 10.2018 64.3144 10.6293 64.9311 10.9452L65.1591 10.5002ZM63.9391 9.40016L64.37 9.14665C64.1504 8.77325 64.0391 8.36135 64.0391 7.90016H63.5391H63.0391C63.0391 8.5323 63.1944 9.12039 63.5081 9.65367L63.9391 9.40016ZM63.5391 7.90016H64.0391C64.0391 7.13252 64.3296 6.52981 64.9305 6.0513L64.6191 5.66016L64.3076 5.26902C63.4685 5.93717 63.0391 6.82779 63.0391 7.90016H63.5391ZM64.6191 5.66016L64.9305 6.0513C65.5243 5.57848 66.4721 5.30016 67.8591 5.30016V4.80016V4.30016C66.366 4.30016 65.1538 4.59516 64.3076 5.26902L64.6191 5.66016ZM67.8591 4.80016V5.30016H70.3791V4.80016V4.30016H67.8591V4.80016ZM70.3791 4.80016H70.8791V4.56016H70.3791H69.8791V4.80016H70.3791ZM70.3791 4.56016H70.8791C70.8791 3.78719 70.6564 3.12066 70.1178 2.67496L69.7991 3.06016L69.4803 3.44535C69.7151 3.63965 69.8791 3.97312 69.8791 4.56016H70.3791ZM69.7991 3.06016L70.1178 2.67496C69.6289 2.27031 69.0313 2.08016 68.3591 2.08016V2.58016V3.08016C68.8335 3.08016 69.1959 3.21 69.4803 3.44535L69.7991 3.06016ZM68.3591 2.58016V2.08016C67.7543 2.08016 67.203 2.22875 66.7251 2.54193L66.9991 2.96016L67.2731 3.37839C67.5684 3.18489 67.9239 3.08016 68.3591 3.08016V2.58016ZM66.9991 2.96016L66.7354 2.53534C66.2209 2.85464 65.9059 3.33949 65.7883 3.94472L66.2791 4.04016L66.7699 4.13559C66.8389 3.78082 67.0038 3.54567 67.2627 3.38498L66.9991 2.96016ZM66.2791 4.04016V3.54016H63.7791V4.04016V4.54016H66.2791V4.04016ZM63.7791 4.04016L64.2769 4.08625C64.3355 3.4539 64.5434 2.91915 64.8943 2.46644L64.4991 2.16016L64.1039 1.85387C63.628 2.46783 63.356 3.18641 63.2812 3.99406L63.7791 4.04016ZM64.4991 2.16016L64.8895 2.4725C65.2609 2.00822 65.7383 1.65077 66.3327 1.40115L66.1391 0.940156L65.9454 0.479164C65.2065 0.78954 64.5905 1.24543 64.1086 1.84781L64.4991 2.16016ZM66.1391 0.940156L66.3404 1.39781C66.9356 1.13593 67.6124 1.00016 68.3791 1.00016V0.500156V0.000156403C67.4924 0.000156403 66.6758 0.15771 65.9377 0.482498L66.1391 0.940156ZM68.3791 0.500156V1.00016C69.7101 1.00016 70.694 1.33188 71.3911 1.93759L71.7191 1.56016L72.047 1.18272C71.1175 0.375101 69.8747 0.000156403 68.3791 0.000156403V0.500156ZM71.7191 1.56016L71.3911 1.93759C72.0733 2.53027 72.4391 3.37984 72.4391 4.56016H72.9391H73.4391C73.4391 3.1538 72.9915 2.00338 72.047 1.18272L71.7191 1.56016ZM72.9391 4.56016H72.4391V10.6602H72.9391H73.4391V4.56016H72.9391ZM72.9391 10.6602V10.1602H70.7591V10.6602V11.1602H72.9391V10.6602ZM70.7591 10.6602L71.2535 10.586L71.0135 8.98599L70.5191 9.06016L70.0246 9.13433L70.2646 10.7343L70.7591 10.6602ZM70.5191 9.06016L70.081 8.8192C69.8291 9.27709 69.4741 9.65705 69.0066 9.96093L69.2791 10.3802L69.5516 10.7994C70.1507 10.4099 70.6223 9.90989 70.9572 9.30112L70.5191 9.06016ZM69.2791 10.3802L69.0017 9.96413C68.5865 10.2409 68.0183 10.4002 67.2591 10.4002V10.9002V11.4002C68.1531 11.4002 68.9316 11.2127 69.5564 10.7962L69.2791 10.3802ZM67.8391 8.90016V9.40016C68.6922 9.40016 69.4113 9.11455 69.9232 8.50025L69.5391 8.18016L69.155 7.86006C68.8669 8.20576 68.4526 8.40016 67.8391 8.40016V8.90016ZM69.5391 8.18016L69.9179 8.50642C70.4003 7.94623 70.6946 7.26226 70.8135 6.47478L70.3191 6.40016L69.8247 6.32553C69.7302 6.95139 69.5045 7.45408 69.1602 7.8539L69.5391 8.18016ZM70.3191 6.40016V5.90016H68.1391V6.40016V6.90016H70.3191V6.40016ZM68.1391 6.40016V5.90016C67.421 5.90016 66.7835 6.02928 66.3522 6.40174L66.6791 6.78016L67.0059 7.15857C67.1613 7.02436 67.4971 6.90016 68.1391 6.90016V6.40016ZM66.6791 6.78016L66.3624 6.39318C65.9601 6.72238 65.7391 7.16132 65.7391 7.68016H66.2391H66.7391C66.7391 7.479 66.8114 7.31794 66.9957 7.16714L66.6791 6.78016ZM66.2391 7.68016H65.7391C65.7391 8.21442 65.9526 8.67005 66.385 8.98452L66.6791 8.58016L66.9732 8.17579C66.8189 8.06359 66.7391 7.91923 66.7391 7.68016H66.2391ZM66.6791 8.58016L66.385 8.98452C66.7876 9.27736 67.2873 9.40016 67.8391 9.40016V8.90016V8.40016C67.4308 8.40016 67.1572 8.30962 66.9732 8.17579L66.6791 8.58016ZM77.2244 10.6602L76.7445 10.8005L76.8496 11.1602H77.2244V10.6602ZM74.3244 0.740156V0.240156H73.6573L73.8445 0.880453L74.3244 0.740156ZM76.8644 0.740156L77.3505 0.623057L77.2582 0.240156H76.8644V0.740156ZM78.5844 7.88016L78.0983 7.99725L78.548 9.8639L79.0658 8.01502L78.5844 7.88016ZM80.5844 0.740156V0.240156H80.2052L80.1029 0.60529L80.5844 0.740156ZM83.4244 0.740156L83.9058 0.60529L83.8036 0.240156H83.4244V0.740156ZM85.4244 7.88016L84.9429 8.01502L85.458 9.85392L85.9102 7.99854L85.4244 7.88016ZM87.1644 0.740156V0.240156H86.7716L86.6786 0.621772L87.1644 0.740156ZM89.7044 0.740156L90.184 0.881344L90.3728 0.240156H89.7044V0.740156ZM86.7844 10.6602V11.1602H87.1584L87.264 10.8013L86.7844 10.6602ZM84.1244 10.6602L83.6436 10.7975L83.7472 11.1602H84.1244V10.6602ZM82.0044 3.24016L82.4851 3.10279L82.0044 1.42013L81.5236 3.10279L82.0044 3.24016ZM79.8844 10.6602V11.1602H80.2615L80.3651 10.7975L79.8844 10.6602ZM77.2244 10.6602L77.7043 10.5199L74.8043 0.599858L74.3244 0.740156L73.8445 0.880453L76.7445 10.8005L77.2244 10.6602ZM74.3244 0.740156V1.24016H76.8644V0.740156V0.240156H74.3244V0.740156ZM76.8644 0.740156L76.3783 0.857254L78.0983 7.99725L78.5844 7.88016L79.0705 7.76306L77.3505 0.623057L76.8644 0.740156ZM78.5844 7.88016L79.0658 8.01502L81.0658 0.875021L80.5844 0.740156L80.1029 0.60529L78.1029 7.74529L78.5844 7.88016ZM80.5844 0.740156V1.24016H83.4244V0.740156V0.240156H80.5844V0.740156ZM83.4244 0.740156L82.9429 0.875021L84.9429 8.01502L85.4244 7.88016L85.9058 7.74529L83.9058 0.60529L83.4244 0.740156ZM85.4244 7.88016L85.9102 7.99854L87.6502 0.85854L87.1644 0.740156L86.6786 0.621772L84.9386 7.76177L85.4244 7.88016ZM87.1644 0.740156V1.24016H89.7044V0.740156V0.240156H87.1644V0.740156ZM89.7044 0.740156L89.2247 0.598968L86.3047 10.519L86.7844 10.6602L87.264 10.8013L90.184 0.881344L89.7044 0.740156ZM86.7844 10.6602V10.1602H84.1244V10.6602V11.1602H86.7844V10.6602ZM84.1244 10.6602L84.6051 10.5228L82.4851 3.10279L82.0044 3.24016L81.5236 3.37752L83.6436 10.7975L84.1244 10.6602ZM82.0044 3.24016L81.5236 3.10279L79.4036 10.5228L79.8844 10.6602L80.3651 10.7975L82.4851 3.37752L82.0044 3.24016ZM79.8844 10.6602V10.1602H77.2244V10.6602V11.1602H79.8844V10.6602ZM90.9275 10.3602L90.5739 10.7138L90.5819 10.7215L90.9275 10.3602ZM90.9275 8.22016L90.5818 7.85875L90.5739 7.8666L90.9275 8.22016ZM93.2275 8.22016L92.8739 8.5738L92.8819 8.58148L93.2275 8.22016ZM93.2275 10.3602L92.8818 9.99875L92.8739 10.0066L93.2275 10.3602ZM92.0875 10.8002V10.3002C91.7356 10.3002 91.4771 10.1939 91.2731 9.99883L90.9275 10.3602L90.5819 10.7215C90.9913 11.113 91.5061 11.3002 92.0875 11.3002V10.8002ZM90.9275 10.3602L91.2811 10.0066C91.0811 9.80665 90.9875 9.58034 90.9875 9.30016H90.4875H89.9875C89.9875 9.84664 90.1872 10.327 90.5739 10.7137L90.9275 10.3602ZM90.4875 9.30016H90.9875C90.9875 9.00187 91.0844 8.77032 91.2811 8.57371L90.9275 8.22016L90.5739 7.8666C90.1839 8.25665 89.9875 8.74511 89.9875 9.30016H90.4875ZM90.9275 8.22016L91.2731 8.58148C91.4771 8.38638 91.7356 8.28016 92.0875 8.28016V7.78016V7.28016C91.5061 7.28016 90.9913 7.46727 90.5819 7.85884L90.9275 8.22016ZM92.0875 7.78016V8.28016C92.4396 8.28016 92.6864 8.3862 92.8739 8.57371L93.2275 8.22016L93.5811 7.8666C93.1819 7.46744 92.6687 7.28016 92.0875 7.28016V7.78016ZM93.2275 8.22016L92.8819 8.58148C93.0893 8.77991 93.1875 9.00911 93.1875 9.30016H93.6875H94.1875C94.1875 8.73787 93.979 8.24707 93.5731 7.85884L93.2275 8.22016ZM93.6875 9.30016H93.1875C93.1875 9.57297 93.0929 9.79699 92.8819 9.99883L93.2275 10.3602L93.5731 10.7215C93.9754 10.3367 94.1875 9.85401 94.1875 9.30016H93.6875ZM93.2275 10.3602L92.8739 10.0066C92.6864 10.1941 92.4396 10.3002 92.0875 10.3002V10.8002V11.3002C92.6687 11.3002 93.1819 11.1129 93.5811 10.7137L93.2275 10.3602Z" fill="white" mask="url(#path-1-outside-1_59_9)"/>
</svg>
