<svg width="32" height="32" viewBox="0 0 32 32" fill="none" xmlns="http://www.w3.org/2000/svg">
<path d="M12.4876 2.27508C9.66255 2.77508 9.15005 3.81883 9.15005 5.75008V8.29383H15.8313V9.14383H6.6438C4.70005 9.14383 3.00005 10.3126 2.4688 12.5313C1.8563 15.0751 1.8313 16.6626 2.4688 19.3188C2.9438 21.2938 4.07505 22.7063 6.0188 22.7063H8.31255V19.6563C8.31255 17.4501 10.2188 15.5063 12.4876 15.5063H19.1626C21.0188 15.5063 22.5001 13.9751 22.5001 12.1126V5.74383C22.5001 3.93133 20.9751 2.57508 19.1626 2.26883C16.9251 1.90008 14.4938 1.91883 12.4876 2.27508ZM12.0688 4.05008C12.7563 4.05008 13.3251 4.62508 13.3251 5.32508C13.3251 6.02508 12.7626 6.59383 12.0688 6.59383C11.3751 6.59383 10.8126 6.02508 10.8126 5.32508C10.8188 4.61883 11.3751 4.05008 12.0688 4.05008ZM23.6438 9.13758V12.1063C23.6438 14.4063 21.6938 16.3438 19.4688 16.3438H12.7938C10.9688 16.3438 9.4563 17.9063 9.4563 19.7376V26.1001C9.4563 27.9126 11.0313 28.9751 12.7938 29.4938C14.9063 30.1126 16.9376 30.2251 19.4688 29.4938C21.1501 29.0063 22.8063 28.0251 22.8063 26.1001V23.5563H16.1376V22.7063H26.1501C28.0938 22.7063 28.8126 21.3501 29.4876 19.3188C30.1876 17.2251 30.1563 15.2126 29.4876 12.5313C29.0063 10.6001 28.0938 9.14383 26.1501 9.14383H23.6438V9.13758ZM19.8876 25.2501C20.5813 25.2501 21.1438 25.8188 21.1438 26.5188C21.1438 27.2251 20.5813 27.7938 19.8876 27.7938C19.2001 27.7938 18.6313 27.2188 18.6313 26.5188C18.6376 25.8126 19.2001 25.2501 19.8876 25.2501Z" fill="white"/>
</svg>
